<?xml version="1.0" encoding="utf-8"?>
<!-- Generator: Adobe Illustrator 22.0.1, SVG Export Plug-In . SVG Version: 6.00 Build 0)  -->
<svg version="1.1" xmlns="http://www.w3.org/2000/svg" xmlns:xlink="http://www.w3.org/1999/xlink" x="0px" y="0px"
	 viewBox="0 0 1366 768" style="enable-background:new 0 0 1366 768;" xml:space="preserve">
<style type="text/css">
	.st0{display:none;}
	.st1{display:inline;fill:#666666;}
	.st2{display:inline;}
	.st3{fill:#808080;}
	.st4{fill:#666666;}
	.st5{fill:#1A1A1A;}
	.st6{fill:#B3B3B3;}
	.st7{fill:#E6E6E6;}
	.st8{display:inline;fill:#1A1A1A;}
</style>
<g id="Layer_1" class="st0">
	<path id="XMLID_11_" class="st1" d="M790.9,359.2l-89.1-154.4l-89.1,154.4h35.1l3.8-6.5h-27.6l43.9-76.1l43.9,76.1h-47.7l21.3-36.9
		l-3.8-6.5l-37,64.1h-58.3L655,254.4l6.6,11.4l3.8-6.5L655,241.4l-79.9,138.4h65.8l-11.3,19.5h159.8l-23.2-40.1H790.9z M671.6,270.1
		l30.2-52.3l77.9,134.9h-17.1l-53-91.8l-19.1,33.2l3.8,6.5l15.4-26.7l45.5,78.8h-35.8L671.6,270.1z M660.3,359.2h55.2l8.1,14.1
		h-71.5L660.3,359.2z M778.2,392.8H640.9l7.5-13h86.5L723,359.2h35.8L778.2,392.8z"/>
	<g id="XMLID_4_" class="st2">
		<path id="XMLID_35_" class="st3" d="M482,558.9h-0.3l-4.6-6.5v10.5h-1.6v-12.7h1.9l4.5,6.5l4.4-6.5h1.9v12.7h-1.6v-10.4L482,558.9
			z"/>
		<path id="XMLID_40_" class="st3" d="M500.4,550.2l5.7,12.7h-1.7l-1.3-2.8h-7.3l-1.2,2.8h-1.7l5.7-12.7H500.4z M499.5,551.8l-3,6.9
			h6L499.5,551.8z"/>
		<path id="XMLID_43_" class="st3" d="M512,550.2l7.8,9.7v-9.7h1.6v12.7h-1.1l-7.8-9.7v9.7h-1.6v-12.7H512z"/>
		<path id="XMLID_45_" class="st3" d="M537.8,550.2v7.6c0,3.5-2.4,5.3-5.2,5.3c-2.7,0-5.2-1.7-5.2-5.3v-7.6h1.6v7.6
			c0,2.5,1.7,3.9,3.7,3.9c2,0,3.6-1.4,3.6-3.9v-7.6L537.8,550.2L537.8,550.2z"/>
		<path id="XMLID_47_" class="st3" d="M552.7,550.2v1.5h-7.3v4.4h6.9v1.5h-6.9v5.3h-1.6v-12.7H552.7z"/>
		<path id="XMLID_49_" class="st3" d="M563.3,550.2l5.7,12.7h-1.7l-1.3-2.8h-7.3l-1.2,2.8h-1.7l5.7-12.7H563.3z M562.4,551.8l-3,6.9
			h6L562.4,551.8z"/>
		<path id="XMLID_52_" class="st3" d="M579.2,563.1c-4.5,0-6.6-3.1-6.6-6.5c0-3.4,2.2-6.6,6.6-6.6c1.7,0,3.4,0.6,4.7,1.9l-1.1,1
			c-1-1-2.3-1.4-3.6-1.4c-3.4,0-5.1,2.5-5.1,5.1c0,2.6,1.6,5,5.1,5c1.3,0,2.7-0.5,3.6-1.5l1.1,1.1
			C582.6,562.5,580.9,563.1,579.2,563.1z"/>
		<path id="XMLID_54_" class="st3" d="M587.6,551.6v-1.4h10.3v1.4h-4.3v11.3H592v-11.3H587.6z"/>
		<path id="XMLID_56_" class="st3" d="M612.9,550.2v7.6c0,3.5-2.4,5.3-5.2,5.3c-2.7,0-5.2-1.7-5.2-5.3v-7.6h1.6v7.6
			c0,2.5,1.7,3.9,3.7,3.9c2,0,3.6-1.4,3.6-3.9v-7.6L612.9,550.2L612.9,550.2z"/>
		<path id="XMLID_58_" class="st3" d="M623.6,558.3h-3.1v4.6h-1.6v-12.7h5.8c2.9,0,4.3,2,4.3,4.1c0,1.9-1,3.7-3.7,3.9l4.2,4.7h-2
			L623.6,558.3z M627.4,554.3c0-1.3-0.9-2.7-2.7-2.7h-4.2v5.3h4.1C626.6,556.9,627.4,555.7,627.4,554.3z"/>
		<path id="XMLID_61_" class="st3" d="M634.7,550.2h8.9v1.5h-7.4v4h7.1v1.5h-7.1v4.3h7.7v1.5h-9.2V550.2z"/>
		<path id="XMLID_63_" class="st3" d="M654,558.3h-3.1v4.6h-1.6v-12.7h5.8c2.9,0,4.3,2,4.3,4.1c0,1.9-1,3.7-3.7,3.9l4.2,4.7h-2
			L654,558.3z M657.8,554.3c0-1.3-0.9-2.7-2.7-2.7h-4.2v5.3h4.1C656.9,556.9,657.8,555.7,657.8,554.3z"/>
		<path id="XMLID_66_" class="st3" d="M666.1,554.9h-1.4v-4.8h1.4V554.9z"/>
		<path id="XMLID_68_" class="st3" d="M676.3,551.3c-1.6,0-3.3,0.6-3.3,2.2c0,1.4,1.6,1.8,3.5,2.1c2.5,0.4,5.1,0.9,5.1,3.8
			c0,2.9-2.7,3.8-5.2,3.8c-2.3,0-4.4-0.8-5.4-2.9l1.3-0.8c0.8,1.5,2.5,2.2,4.1,2.2c1.5,0,3.6-0.5,3.6-2.4c0-1.6-1.8-2-3.7-2.3
			c-2.5-0.4-4.8-0.9-4.8-3.5c0-2.7,2.7-3.6,4.9-3.6c1.9,0,3.7,0.4,4.8,2.3l-1.2,0.7C679.2,551.9,677.7,551.4,676.3,551.3z"/>
		<path id="XMLID_70_" class="st3" d="M698.9,558.3h-3.1v4.6h-1.6v-12.7h5.8c2.9,0,4.3,2,4.3,4.1c0,1.9-1,3.7-3.7,3.9l4.2,4.7h-2
			L698.9,558.3z M702.7,554.3c0-1.3-0.9-2.7-2.7-2.7h-4.2v5.3h4.1C701.8,556.9,702.7,555.7,702.7,554.3z"/>
		<path id="XMLID_73_" class="st3" d="M710,550.2h8.9v1.5h-7.4v4h7.1v1.5h-7.1v4.3h7.7v1.5H710V550.2z"/>
		<path id="XMLID_75_" class="st3" d="M726.1,562.9h-1.6v-12.7h5.8c5.9,0,5.9,8.6,0,8.6h-4.2V562.9z M730.4,551.7h-4.2v5.7h4.2
			C734.1,557.3,734.1,551.7,730.4,551.7z"/>
		<path id="XMLID_78_" class="st3" d="M744.5,558.3h-3.1v4.6h-1.6v-12.7h5.8c2.9,0,4.3,2,4.3,4.1c0,1.9-1,3.7-3.7,3.9l4.2,4.7h-2
			L744.5,558.3z M748.3,554.3c0-1.3-0.9-2.7-2.7-2.7h-4.2v5.3h4.1C747.4,556.9,748.3,555.7,748.3,554.3z"/>
		<path id="XMLID_81_" class="st3" d="M755.6,550.2h8.9v1.5h-7.4v4h7.1v1.5h-7.1v4.3h7.7v1.5h-9.2V550.2z"/>
		<path id="XMLID_83_" class="st3" d="M774.5,551.3c-1.6,0-3.3,0.6-3.3,2.2c0,1.4,1.6,1.8,3.5,2.1c2.5,0.4,5.1,0.9,5.1,3.8
			c0,2.9-2.7,3.8-5.2,3.8c-2.3,0-4.4-0.8-5.4-2.9l1.3-0.8c0.8,1.5,2.5,2.2,4.1,2.2c1.5,0,3.6-0.5,3.6-2.4c0-1.6-1.8-2-3.7-2.3
			c-2.5-0.4-4.8-0.9-4.8-3.5c0-2.7,2.7-3.6,4.9-3.6c1.9,0,3.7,0.4,4.8,2.3L778,553C777.3,551.9,775.9,551.4,774.5,551.3z"/>
		<path id="XMLID_85_" class="st3" d="M784.9,550.2h8.9v1.5h-7.4v4h7.1v1.5h-7.1v4.3h7.7v1.5h-9.2V550.2z"/>
		<path id="XMLID_87_" class="st3" d="M800.7,550.2l7.8,9.7v-9.7h1.6v12.7h-1.1l-7.8-9.7v9.7h-1.6v-12.7H800.7z"/>
		<path id="XMLID_89_" class="st3" d="M814.8,551.6v-1.4h10.3v1.4h-4.3v11.3h-1.6v-11.3H814.8z"/>
		<path id="XMLID_91_" class="st3" d="M834.8,550.2l5.7,12.7h-1.7l-1.3-2.8h-7.3l-1.2,2.8h-1.7l5.7-12.7H834.8z M833.9,551.8l-3,6.9
			h6L833.9,551.8z"/>
		<path id="XMLID_94_" class="st3" d="M842.7,551.6v-1.4H853v1.4h-4.3v11.3h-1.6v-11.3H842.7z"/>
		<path id="XMLID_96_" class="st3" d="M857.8,550.2h1.6v12.7h-1.6V550.2z"/>
		<path id="XMLID_98_" class="st3" d="M866,550.2l4.3,10.9l4.4-10.9h1.7l-5.3,12.8h-1.7l-5.3-12.8H866z"/>
		<path id="XMLID_100_" class="st3" d="M881.3,550.2h8.9v1.5h-7.4v4h7.1v1.5h-7.1v4.3h7.7v1.5h-9.2V550.2z"/>
	</g>
	<g id="XMLID_21_" class="st2">
		<path id="XMLID_22_" class="st3" d="M632.9,523.8c2.6-3.2,4.9-6.7,6.9-10.5c0.8-1.7,1.4-3.1,1.8-4.4c2.6,1.2,3.8,2,3.8,2.5
			c0,0.4-0.6,0.7-1.8,0.7c-2.8,4.6-5.9,8.5-9.3,11.6c3.1-0.4,5.5-0.8,7.1-1.2c0.5-1.6,0.8-2.9,0.9-4c1.8,0.6,2.9,1,3.3,1.2
			c0.6,0.3,0.9,0.6,0.9,0.8c0,0.4-0.6,0.7-1.8,0.9c-1.4,4.2-3.4,7.7-6.1,10.5c-2.3,2.4-5.2,4.4-8.8,6c0,0-0.1,0-0.1,0
			c-0.3,0-0.4-0.1-0.4-0.4c0-0.1,0-0.1,0.1-0.2c2.8-1.7,5.2-4,7.4-6.6c1.8-2.3,3.2-4.6,4.1-7c-2.4,1.1-5.6,2.1-9.6,3.1
			c-0.2,1-0.5,1.5-0.8,1.5c-0.5,0-1.1-1.4-1.8-4.2C629.8,524,631.1,523.9,632.9,523.8z M649,499.3v-3.1c0-0.7-0.1-1.8-0.3-3.3
			c2.2,0.2,3.6,0.5,4.3,0.7c0.5,0.2,0.7,0.4,0.7,0.7c0,0.4-0.6,0.9-1.7,1.3v3.8h14.4c1.6-1.7,2.5-2.6,2.7-2.6c0.3,0,1.2,0.7,2.9,2
			c0.8,0.7,1.1,1.1,1.1,1.4c0,0.3-0.2,0.4-0.7,0.4h-39.1c-1.2,0-2.4,0.1-3.7,0.3l-0.5-1.8c1.3,0.2,2.7,0.3,4.1,0.3H649z M633.6,511
			c0.9-1.5,1.8-3.4,2.6-5.8c0.4-1.3,0.7-2.4,0.8-3.4c1.9,0.6,3.2,1.1,3.7,1.4c0.4,0.2,0.6,0.4,0.6,0.7c0,0.3-0.1,0.5-0.4,0.6
			c-0.2,0.1-0.7,0.2-1.4,0.3c-1.7,2.7-3.4,4.9-5.2,6.6c1.5,1,2.3,2,2.3,3.1c0,0.5-0.2,1-0.5,1.4c-0.3,0.3-0.6,0.5-1,0.5
			c-0.5,0-1-0.4-1.4-1.3c-0.9-2-2.2-3.7-4.1-5c-0.1,0-0.1-0.1-0.1-0.2c0-0.2,0.1-0.3,0.3-0.3c0,0,0.1,0,0.1,0
			C631.4,510,632.6,510.5,633.6,511z M661.9,517.8h4.3c1.2-1.4,1.9-2.2,2.2-2.2c0.2,0,1,0.5,2.3,1.6c0.7,0.6,1,1,1,1.3
			c0,0.3-0.2,0.5-0.7,0.5h-9.1v6.4h4.4c1.2-1.4,2-2.1,2.2-2.1c0.2,0,1,0.6,2.4,1.7c0.6,0.5,0.9,0.9,0.9,1.2c0,0.3-0.2,0.4-0.7,0.4
			h-9.2v7.4h5.8c1.3-1.5,2.1-2.3,2.4-2.3c0.2,0,1.1,0.6,2.5,1.8c0.7,0.6,1,1,1,1.3c0,0.3-0.2,0.5-0.7,0.5h-20.7v1.6
			c0,0.8-0.6,1.3-1.8,1.3c-0.5,0-0.9-0.1-1.1-0.3c-0.2-0.2-0.3-0.5-0.3-0.9l0.1-12.9c0-3,0.1-6.5,0.2-10.6c-1.5,1.7-3.1,3.2-4.9,4.5
			c0,0-0.1,0-0.1,0c-0.3,0-0.4-0.2-0.4-0.5c0,0,0-0.1,0-0.1c1.7-1.8,3.3-3.9,4.8-6.3c1.2-2,2.2-3.8,2.9-5.5c0.5-1.2,0.8-2.4,1-3.5
			c1.8,0.5,2.9,0.9,3.5,1.2c0.5,0.2,0.8,0.5,0.8,0.7c0,0.4-0.6,0.6-1.9,0.8c-0.9,1.9-1.9,3.7-3.1,5.4l0.3,0.2h6.5
			c1-2.1,1.8-4,2.3-5.6c0.3-1.1,0.5-2,0.6-2.6c1.9,0.6,3.1,1,3.5,1.2c0.4,0.2,0.7,0.5,0.7,0.7c0,0.4-0.6,0.7-1.8,0.8
			c-1.2,1.9-2.5,3.8-4.1,5.5h6.9c1.3-1.5,2.1-2.2,2.3-2.2c0.2,0,1.1,0.6,2.5,1.7c0.7,0.5,1,0.9,1,1.2c0,0.3-0.2,0.5-0.7,0.5h-10.1
			V517.8z M659.1,517.8v-6.3h-6.9v6.3H659.1z M659.1,519h-6.9v6.4h6.9V519z M659.1,526.6h-6.9c0,3.3,0,5.7,0,7.4h6.8V526.6z"/>
		<path id="XMLID_33_" class="st3" d="M705.4,508.4c-0.8,6-2.5,10.9-5.2,14.9c-4,6-9.6,10.6-16.8,13.7c0,0,0,0-0.1,0
			c-0.2,0-0.4-0.2-0.4-0.5c0-0.1,0-0.2,0.1-0.2c6.9-4.1,11.9-9.2,15.2-15.3c2.1-3.9,3.4-8.4,4.1-13.4h-14.5c-1.4,0-2.7,0.1-3.8,0.3
			l-0.5-1.9c1.3,0.2,2.8,0.3,4.3,0.3h14.6c0.3-2.8,0.4-5.9,0.4-9.4c0-0.8-0.1-1.9-0.3-3.1c2.3,0.3,3.8,0.6,4.4,0.8
			c0.5,0.2,0.8,0.4,0.8,0.7c0,0.4-0.5,0.9-1.6,1.3c0,0.9,0,2.2-0.1,3.8c0,2-0.2,3.9-0.4,5.9h14.5c1.6-1.9,2.5-2.9,2.8-2.9
			c0.3,0,1.3,0.7,3.1,2.2c0.8,0.7,1.2,1.2,1.2,1.5c0,0.3-0.2,0.4-0.7,0.4h-20.2c1.8,6.9,4.8,12.6,9.1,17.3c3.3,3.6,7.4,6.3,12.5,8.3
			c0.1,0,0.2,0.1,0.2,0.2c0,0.2-0.1,0.3-0.3,0.3c-1,0.3-1.7,1-2.1,2.1c-0.2,0.4-0.4,0.6-0.7,0.6c-0.3,0-0.9-0.3-2-1
			c-3.6-2.3-6.9-5.4-9.9-9.3C709.4,521.5,706.9,515.6,705.4,508.4z M701.6,524.9C701.5,524.9,701.5,524.9,701.6,524.9
			c0-0.3,0-0.3,0.2-0.3c0,0,0.1,0,0.1,0c2.2,1,4,2.4,5.3,3.9c1.1,1.3,1.7,2.6,1.7,3.8c0,0.7-0.2,1.3-0.6,1.8
			c-0.3,0.4-0.7,0.6-1.2,0.6c-0.8,0-1.4-0.7-1.7-2.1C705,529.8,703.7,527.2,701.6,524.9z"/>
	</g>
	<g id="XMLID_38_" class="st2">
		<rect id="XMLID_39_" x="479.5" y="513.7" class="st4" width="130.8" height="3.6"/>
		<rect id="XMLID_102_" x="746.6" y="513.7" class="st4" width="139.9" height="3.6"/>
	</g>
	<g id="XMLID_2_" class="st2">
		<polygon id="XMLID_432_" class="st3" points="495.3,455.6 482.5,435.4 476.1,435.4 476.1,435.6 492.6,460.7 492.6,478 498.1,478 
			498.1,460.7 514.9,435.6 514.9,435.4 508.4,435.4 		"/>
		<path id="XMLID_435_" class="st3" d="M562.2,434.7c-13.5,0-21.7,9.8-21.7,22.2c0,11.2,7.1,22,21.7,22c14.6,0,21.6-10.9,21.6-22
			C583.8,445.6,576.6,434.7,562.2,434.7z M562.2,473.9c-11.2,0-16.4-8.4-16.4-17c0-9.3,5.6-17.3,16.4-17.3
			c11.1,0.1,16.3,8.6,16.3,17.3C578.4,465.2,573.4,473.9,562.2,473.9z"/>
		<polygon id="XMLID_436_" class="st3" points="646.6,468 620.4,435.4 616.7,435.4 616.7,478 622,478 622,445.5 648.1,478 
			651.8,478 651.8,435.4 646.6,435.4 		"/>
		<path id="XMLID_437_" class="st3" d="M705.6,459.4h13.3v10.1c-3.5,3-7.6,4.3-11.6,4.3c-11.6,0-17-8.1-17-16.7
			c0-9.4,6-17.6,16.9-17.6c4.3,0,9.3,1.8,12.6,5l3-3.5c-4.3-4.3-10-6.4-15.6-6.4c-13.9,0-22.2,9.8-22.2,22.5
			c0,11.4,7.1,21.7,22.2,21.7c6.9,0,12.2-2.6,16.5-7.2v-16.9h-18.1V459.4z"/>
		<polygon id="XMLID_438_" class="st3" points="752.6,440.2 767.1,440.2 767.1,478 772.3,478 772.3,440.2 786.9,440.2 786.9,435.4 
			752.6,435.4 		"/>
		<path id="XMLID_441_" class="st3" d="M828.5,435.4L809.4,478h5.8l5.2-11.8h22.4l5.2,11.8h5.7l-19.1-42.6H828.5z M822.5,461.3
			l9-20.5l9,20.5H822.5z"/>
		<rect id="XMLID_442_" x="884.6" y="435.4" class="st3" width="5.3" height="42.6"/>
	</g>
</g>
<g id="Layer_1_copy_3">
	<rect id="XMLID_5_" class="st5" width="1366" height="768"/>
	<g id="XMLID_3_">
		<g id="XMLID_103_">
			<path id="XMLID_426_" class="st4" d="M790.9,359.2l-89.1-154.4l-89.1,154.4h35.1l3.8-6.5h-27.6l43.9-76.1l43.9,76.1h-47.7
				l21.3-36.9l-3.8-6.5l-37,64.1h-58.3L655,254.4l6.6,11.4l3.8-6.5L655,241.4l-79.9,138.4h65.8l-11.3,19.5h159.8l-23.2-40.1H790.9z
				 M671.6,270.1l30.2-52.3l77.9,134.9h-17.1l-53-91.8l-19.1,33.2l3.8,6.5l15.4-26.7l45.5,78.8h-35.8L671.6,270.1z M660.3,359.2
				h55.2l8.1,14.1h-71.5L660.3,359.2z M778.2,392.8H640.9l7.5-13h86.5L723,359.2h35.8L778.2,392.8z"/>
			<g id="XMLID_309_">
				<g id="XMLID_411_">
					<path id="XMLID_424_" class="st6" d="M476.1,435.6v-0.2h6.5l12.8,20.2l13.1-20.2h6.5v0.2l-16.8,25.1V478h-5.5v-17.3
						L476.1,435.6z"/>
					<path id="XMLID_421_" class="st6" d="M583.7,456.8c-0.1,11.1-7,22-21.6,22c-14.6,0-21.7-10.8-21.7-22
						c0-12.4,8.3-22.2,21.7-22.2C576.6,434.7,583.8,445.6,583.7,456.8z M562.2,439.5c-10.8,0-16.4,8-16.4,17.3c0,8.6,5.2,17,16.4,17
						c11.2,0,16.3-8.6,16.3-17C578.5,448.2,573.3,439.7,562.2,439.5z"/>
					<path id="XMLID_419_" class="st6" d="M620.4,435.4l26.1,32.6v-32.6h5.2V478h-3.7L622,445.5V478h-5.2v-42.6H620.4z"/>
					<path id="XMLID_417_" class="st6" d="M719.7,444.5c-3.3-3.2-8.3-5-12.6-5c-11,0-16.9,8.2-16.9,17.6c0,8.6,5.5,16.7,17,16.7
						c4,0,8.1-1.3,11.6-4.3v-10.1h-13.3v-4.7h18.1v16.9c-4.3,4.6-9.6,7.2-16.5,7.2c-15.2,0-22.2-10.3-22.2-21.7
						c-0.1-12.7,8.3-22.5,22.2-22.5c5.7,0,11.3,2.1,15.6,6.4L719.7,444.5z"/>
					<path id="XMLID_415_" class="st6" d="M752.6,440.2v-4.7h34.3v4.7h-14.6V478h-5.2v-37.9H752.6z"/>
					<polygon id="XMLID_414_" class="st6" points="834.4,435.4 828.5,435.4 809.4,478 815.1,478 831.5,440.8 847.8,478 853.6,478 
											"/>
					<path id="XMLID_412_" class="st6" d="M884.6,435.4h5.3V478h-5.3V435.4z"/>
				</g>
				<g id="XMLID_329_">
					<path id="XMLID_409_" class="st7" d="M482,558.9h-0.3l-4.6-6.5v10.5h-1.6v-12.7h1.9l4.5,6.5l4.4-6.5h1.9v12.7h-1.6v-10.4
						L482,558.9z"/>
					<path id="XMLID_406_" class="st7" d="M500.4,550.2l5.7,12.7h-1.7l-1.3-2.8h-7.3l-1.2,2.8h-1.7l5.7-12.7H500.4z M499.5,551.8
						l-3,6.9h6L499.5,551.8z"/>
					<path id="XMLID_404_" class="st7" d="M512,550.2l7.8,9.7v-9.7h1.6v12.7h-1.1l-7.8-9.7v9.7h-1.6v-12.7H512z"/>
					<path id="XMLID_402_" class="st7" d="M537.8,550.2v7.6c0,3.5-2.4,5.3-5.2,5.3c-2.7,0-5.2-1.7-5.2-5.3v-7.6h1.6v7.6
						c0,2.5,1.7,3.9,3.7,3.9c2,0,3.6-1.4,3.6-3.9v-7.6L537.8,550.2L537.8,550.2z"/>
					<path id="XMLID_400_" class="st7" d="M552.7,550.2v1.5h-7.3v4.4h6.9v1.5h-6.9v5.3h-1.6v-12.7H552.7z"/>
					<path id="XMLID_397_" class="st7" d="M563.3,550.2l5.7,12.7h-1.7l-1.3-2.8h-7.3l-1.2,2.8h-1.7l5.7-12.7H563.3z M562.4,551.8
						l-3,6.9h6L562.4,551.8z"/>
					<path id="XMLID_395_" class="st7" d="M579.2,563.1c-4.5,0-6.6-3.1-6.6-6.5c0-3.4,2.2-6.6,6.6-6.6c1.7,0,3.4,0.6,4.7,1.9l-1.1,1
						c-1-1-2.3-1.4-3.6-1.4c-3.4,0-5.1,2.5-5.1,5.1c0,2.6,1.6,5,5.1,5c1.3,0,2.7-0.5,3.6-1.5l1.1,1.1
						C582.6,562.5,580.9,563.1,579.2,563.1z"/>
					<path id="XMLID_393_" class="st7" d="M587.6,551.6v-1.4h10.3v1.4h-4.3v11.3H592v-11.3H587.6z"/>
					<path id="XMLID_391_" class="st7" d="M612.9,550.2v7.6c0,3.5-2.4,5.3-5.2,5.3c-2.7,0-5.2-1.7-5.2-5.3v-7.6h1.6v7.6
						c0,2.5,1.7,3.9,3.7,3.9c2,0,3.6-1.4,3.6-3.9v-7.6L612.9,550.2L612.9,550.2z"/>
					<path id="XMLID_388_" class="st7" d="M623.6,558.3h-3.1v4.6h-1.6v-12.7h5.8c2.9,0,4.3,2,4.3,4.1c0,1.9-1,3.7-3.7,3.9l4.2,4.7
						h-2L623.6,558.3z M627.4,554.3c0-1.3-0.9-2.7-2.7-2.7h-4.2v5.3h4.1C626.6,556.9,627.4,555.7,627.4,554.3z"/>
					<path id="XMLID_386_" class="st7" d="M634.7,550.2h8.9v1.5h-7.4v4h7.1v1.5h-7.1v4.3h7.7v1.5h-9.2V550.2z"/>
					<path id="XMLID_383_" class="st7" d="M654,558.3h-3.1v4.6h-1.6v-12.7h5.8c2.9,0,4.3,2,4.3,4.1c0,1.9-1,3.7-3.7,3.9l4.2,4.7h-2
						L654,558.3z M657.8,554.3c0-1.3-0.9-2.7-2.7-2.7h-4.2v5.3h4.1C656.9,556.9,657.8,555.7,657.8,554.3z"/>
					<path id="XMLID_381_" class="st7" d="M666.1,554.9h-1.4v-4.8h1.4V554.9z"/>
					<path id="XMLID_379_" class="st7" d="M676.3,551.3c-1.6,0-3.3,0.6-3.3,2.2c0,1.4,1.6,1.8,3.5,2.1c2.5,0.4,5.1,0.9,5.1,3.8
						c0,2.9-2.7,3.8-5.2,3.8c-2.3,0-4.4-0.8-5.4-2.9l1.3-0.8c0.8,1.5,2.5,2.2,4.1,2.2c1.5,0,3.6-0.5,3.6-2.4c0-1.6-1.8-2-3.7-2.3
						c-2.5-0.4-4.8-0.9-4.8-3.5c0-2.7,2.7-3.6,4.9-3.6c1.9,0,3.7,0.4,4.8,2.3l-1.2,0.7C679.2,551.9,677.7,551.4,676.3,551.3z"/>
					<path id="XMLID_376_" class="st7" d="M698.9,558.3h-3.1v4.6h-1.6v-12.7h5.8c2.9,0,4.3,2,4.3,4.1c0,1.9-1,3.7-3.7,3.9l4.2,4.7
						h-2L698.9,558.3z M702.7,554.3c0-1.3-0.9-2.7-2.7-2.7h-4.2v5.3h4.1C701.8,556.9,702.7,555.7,702.7,554.3z"/>
					<path id="XMLID_374_" class="st7" d="M710,550.2h8.9v1.5h-7.4v4h7.1v1.5h-7.1v4.3h7.7v1.5H710V550.2z"/>
					<path id="XMLID_371_" class="st7" d="M726.1,562.9h-1.6v-12.7h5.8c5.9,0,5.9,8.6,0,8.6h-4.2V562.9z M730.4,551.7h-4.2v5.7h4.2
						C734.1,557.3,734.1,551.7,730.4,551.7z"/>
					<path id="XMLID_368_" class="st7" d="M744.5,558.3h-3.1v4.6h-1.6v-12.7h5.8c2.9,0,4.3,2,4.3,4.1c0,1.9-1,3.7-3.7,3.9l4.2,4.7
						h-2L744.5,558.3z M748.3,554.3c0-1.3-0.9-2.7-2.7-2.7h-4.2v5.3h4.1C747.4,556.9,748.3,555.7,748.3,554.3z"/>
					<path id="XMLID_366_" class="st7" d="M755.6,550.2h8.9v1.5h-7.4v4h7.1v1.5h-7.1v4.3h7.7v1.5h-9.2V550.2z"/>
					<path id="XMLID_364_" class="st7" d="M774.5,551.3c-1.6,0-3.3,0.6-3.3,2.2c0,1.4,1.6,1.8,3.5,2.1c2.5,0.4,5.1,0.9,5.1,3.8
						c0,2.9-2.7,3.8-5.2,3.8c-2.3,0-4.4-0.8-5.4-2.9l1.3-0.8c0.8,1.5,2.5,2.2,4.1,2.2c1.5,0,3.6-0.5,3.6-2.4c0-1.6-1.8-2-3.7-2.3
						c-2.5-0.4-4.8-0.9-4.8-3.5c0-2.7,2.7-3.6,4.9-3.6c1.9,0,3.7,0.4,4.8,2.3L778,553C777.3,551.9,775.9,551.4,774.5,551.3z"/>
					<path id="XMLID_362_" class="st7" d="M784.9,550.2h8.9v1.5h-7.4v4h7.1v1.5h-7.1v4.3h7.7v1.5h-9.2V550.2z"/>
					<path id="XMLID_360_" class="st7" d="M800.7,550.2l7.8,9.7v-9.7h1.6v12.7h-1.1l-7.8-9.7v9.7h-1.6v-12.7H800.7z"/>
					<path id="XMLID_358_" class="st7" d="M814.8,551.6v-1.4h10.3v1.4h-4.3v11.3h-1.6v-11.3H814.8z"/>
					<path id="XMLID_355_" class="st7" d="M834.8,550.2l5.7,12.7h-1.7l-1.3-2.8h-7.3l-1.2,2.8h-1.7l5.7-12.7H834.8z M833.9,551.8
						l-3,6.9h6L833.9,551.8z"/>
					<path id="XMLID_353_" class="st7" d="M842.7,551.6v-1.4H853v1.4h-4.3v11.3h-1.6v-11.3H842.7z"/>
					<path id="XMLID_351_" class="st7" d="M857.8,550.2h1.6v12.7h-1.6V550.2z"/>
					<path id="XMLID_332_" class="st7" d="M866,550.2l4.3,10.9l4.4-10.9h1.7l-5.3,12.8h-1.7l-5.3-12.8H866z"/>
					<path id="XMLID_330_" class="st7" d="M881.3,550.2h8.9v1.5h-7.4v4h7.1v1.5h-7.1v4.3h7.7v1.5h-9.2V550.2z"/>
				</g>
				<g id="XMLID_317_">
					<path id="XMLID_321_" class="st6" d="M632.9,523.8c2.6-3.2,4.9-6.7,6.9-10.5c0.8-1.7,1.4-3.1,1.8-4.4c2.6,1.2,3.8,2,3.8,2.5
						c0,0.4-0.6,0.7-1.8,0.7c-2.8,4.6-5.9,8.5-9.3,11.6c3.1-0.4,5.5-0.8,7.1-1.2c0.5-1.6,0.8-2.9,0.9-4c1.8,0.6,2.9,1,3.3,1.2
						c0.6,0.3,0.9,0.6,0.9,0.8c0,0.4-0.6,0.7-1.8,0.9c-1.4,4.2-3.4,7.7-6.1,10.5c-2.3,2.4-5.2,4.4-8.8,6c0,0-0.1,0-0.1,0
						c-0.3,0-0.4-0.1-0.4-0.4c0-0.1,0-0.1,0.1-0.2c2.8-1.7,5.2-4,7.4-6.6c1.8-2.3,3.2-4.6,4.1-7c-2.4,1.1-5.6,2.1-9.6,3.1
						c-0.2,1-0.5,1.5-0.8,1.5c-0.5,0-1.1-1.4-1.8-4.2C629.8,524,631.1,523.9,632.9,523.8z M649,499.3v-3.1c0-0.7-0.1-1.8-0.3-3.3
						c2.2,0.2,3.6,0.5,4.3,0.7c0.5,0.2,0.7,0.4,0.7,0.7c0,0.4-0.6,0.9-1.7,1.3v3.8h14.4c1.6-1.7,2.5-2.6,2.7-2.6
						c0.3,0,1.2,0.7,2.9,2c0.8,0.7,1.1,1.1,1.1,1.4c0,0.3-0.2,0.4-0.7,0.4h-39.1c-1.2,0-2.4,0.1-3.7,0.3l-0.5-1.8
						c1.3,0.2,2.7,0.3,4.1,0.3H649z M633.6,511c0.9-1.5,1.8-3.4,2.6-5.8c0.4-1.3,0.7-2.4,0.8-3.4c1.9,0.6,3.2,1.1,3.7,1.4
						c0.4,0.2,0.6,0.4,0.6,0.7c0,0.3-0.1,0.5-0.4,0.6c-0.2,0.1-0.7,0.2-1.4,0.3c-1.7,2.7-3.4,4.9-5.2,6.6c1.5,1,2.3,2,2.3,3.1
						c0,0.5-0.2,1-0.5,1.4c-0.3,0.3-0.6,0.5-1,0.5c-0.5,0-1-0.4-1.4-1.3c-0.9-2-2.2-3.7-4.1-5c-0.1,0-0.1-0.1-0.1-0.2
						c0-0.2,0.1-0.3,0.3-0.3c0,0,0.1,0,0.1,0C631.4,510,632.6,510.5,633.6,511z M661.9,517.8h4.3c1.2-1.4,1.9-2.2,2.2-2.2
						c0.2,0,1,0.5,2.3,1.6c0.7,0.6,1,1,1,1.3c0,0.3-0.2,0.5-0.7,0.5h-9.1v6.4h4.4c1.2-1.4,2-2.1,2.2-2.1c0.2,0,1,0.6,2.4,1.7
						c0.6,0.5,0.9,0.9,0.9,1.2c0,0.3-0.2,0.4-0.7,0.4h-9.2v7.4h5.8c1.3-1.5,2.1-2.3,2.4-2.3c0.2,0,1.1,0.6,2.5,1.8
						c0.7,0.6,1,1,1,1.3c0,0.3-0.2,0.5-0.7,0.5h-20.7v1.6c0,0.8-0.6,1.3-1.8,1.3c-0.5,0-0.9-0.1-1.1-0.3c-0.2-0.2-0.3-0.5-0.3-0.9
						l0.1-12.9c0-3,0.1-6.5,0.2-10.6c-1.5,1.7-3.1,3.2-4.9,4.5c0,0-0.1,0-0.1,0c-0.3,0-0.4-0.2-0.4-0.5c0,0,0-0.1,0-0.1
						c1.7-1.8,3.3-3.9,4.8-6.3c1.2-2,2.2-3.8,2.9-5.5c0.5-1.2,0.8-2.4,1-3.5c1.8,0.5,2.9,0.9,3.5,1.2c0.5,0.2,0.8,0.5,0.8,0.7
						c0,0.4-0.6,0.6-1.9,0.8c-0.9,1.9-1.9,3.7-3.1,5.4l0.3,0.2h6.5c1-2.1,1.8-4,2.3-5.6c0.3-1.1,0.5-2,0.6-2.6
						c1.9,0.6,3.1,1,3.5,1.2c0.4,0.2,0.7,0.5,0.7,0.7c0,0.4-0.6,0.7-1.8,0.8c-1.2,1.9-2.5,3.8-4.1,5.5h6.9c1.3-1.5,2.1-2.2,2.3-2.2
						c0.2,0,1.1,0.6,2.5,1.7c0.7,0.5,1,0.9,1,1.2c0,0.3-0.2,0.5-0.7,0.5h-10.1V517.8z M659.1,517.8v-6.3h-6.9v6.3H659.1z M659.1,519
						h-6.9v6.4h6.9V519z M659.1,526.6h-6.9c0,3.3,0,5.7,0,7.4h6.8V526.6z"/>
					<path id="XMLID_318_" class="st6" d="M705.4,508.4c-0.8,6-2.5,10.9-5.2,14.9c-4,6-9.6,10.6-16.8,13.7c0,0,0,0-0.1,0
						c-0.2,0-0.4-0.2-0.4-0.5c0-0.1,0-0.2,0.1-0.2c6.9-4.1,11.9-9.2,15.2-15.3c2.1-3.9,3.4-8.4,4.1-13.4h-14.5
						c-1.4,0-2.7,0.1-3.8,0.3l-0.5-1.9c1.3,0.2,2.8,0.3,4.3,0.3h14.6c0.3-2.8,0.4-5.9,0.4-9.4c0-0.8-0.1-1.9-0.3-3.1
						c2.3,0.3,3.8,0.6,4.4,0.8c0.5,0.2,0.8,0.4,0.8,0.7c0,0.4-0.5,0.9-1.6,1.3c0,0.9,0,2.2-0.1,3.8c0,2-0.2,3.9-0.4,5.9h14.5
						c1.6-1.9,2.5-2.9,2.8-2.9c0.3,0,1.3,0.7,3.1,2.2c0.8,0.7,1.2,1.2,1.2,1.5c0,0.3-0.2,0.4-0.7,0.4h-20.2
						c1.8,6.9,4.8,12.6,9.1,17.3c3.3,3.6,7.4,6.3,12.5,8.3c0.1,0,0.2,0.1,0.2,0.2c0,0.2-0.1,0.3-0.3,0.3c-1,0.3-1.7,1-2.1,2.1
						c-0.2,0.4-0.4,0.6-0.7,0.6c-0.3,0-0.9-0.3-2-1c-3.6-2.3-6.9-5.4-9.9-9.3C709.4,521.5,706.9,515.6,705.4,508.4z M701.6,524.9
						C701.5,524.9,701.5,524.9,701.6,524.9c0-0.3,0-0.3,0.2-0.3c0,0,0.1,0,0.1,0c2.2,1,4,2.4,5.3,3.9c1.1,1.3,1.7,2.6,1.7,3.8
						c0,0.7-0.2,1.3-0.6,1.8c-0.3,0.4-0.7,0.6-1.2,0.6c-0.8,0-1.4-0.7-1.7-2.1C705,529.8,703.7,527.2,701.6,524.9z"/>
				</g>
				<g id="XMLID_311_">
					<rect id="XMLID_313_" x="479.5" y="513.7" class="st4" width="130.8" height="3.6"/>
					<rect id="XMLID_312_" x="746.6" y="513.7" class="st4" width="139.9" height="3.6"/>
				</g>
			</g>
		</g>
		<g id="XMLID_1_">
			<rect id="XMLID_431_" x="819.4" y="461.3" class="st6" width="24" height="5"/>
		</g>
	</g>
</g>
<g id="Layer_1_copy_2" class="st0">
	<rect id="XMLID_308_" class="st8" width="1366" height="768"/>
	<g id="XMLID_201_" class="st2">
		<path id="XMLID_303_" class="st4" d="M551,446.9L452.9,277l-98.1,169.9h38.7l4.1-7.2h-30.4l48.3-83.7l48.3,83.7h-52.5l23.5-40.7
			l-4.1-7.2l-40.7,70.5h-64.2l75.5-130.9l7.2,12.6l4.1-7.2l-11.4-19.7l-87.9,152.3h72.5L373.5,491h175.9l-25.5-44.1H551z
			 M419.7,348.9l33.2-57.6l85.7,148.4h-18.8l-58.3-101l-21.1,36.5l4.1,7.2l16.9-29.3l50.1,86.7h-39.4L419.7,348.9z M407.3,446.9H468
			l9,15.5h-78.6L407.3,446.9z M537,483.9H385.9l8.3-14.3h95.2l-13.1-22.7h39.4L537,483.9z"/>
		<g id="XMLID_202_">
			<g id="XMLID_288_">
				<path id="XMLID_301_" class="st6" d="M596.4,314.4v-0.2h7.1l14.1,22.2l14.4-22.2h7.1v0.2L620.6,342v19h-6v-19L596.4,314.4z"/>
				<path id="XMLID_298_" class="st6" d="M714.9,337.7c-0.1,12.3-7.7,24.3-23.8,24.3c-16.1,0-23.9-11.9-23.9-24.3
					c0-13.6,9.1-24.4,23.9-24.4C707.1,313.4,715,325.4,714.9,337.7z M691.2,318.7c-11.9,0-18.1,8.8-18.1,19
					c0,9.5,5.8,18.8,18.1,18.8s17.9-9.5,17.9-18.8C709.1,328.2,703.4,318.9,691.2,318.7z"/>
				<path id="XMLID_296_" class="st6" d="M755.3,314.2l28.7,35.9v-35.9h5.8v46.9h-4L757,325.3v35.8h-5.8v-46.9H755.3z"/>
				<path id="XMLID_294_" class="st6" d="M864.5,324.1c-3.7-3.6-9.1-5.5-13.9-5.5c-12.1,0-18.6,9-18.6,19.4c0,9.5,6,18.4,18.8,18.4
					c4.4,0,8.9-1.4,12.8-4.8v-11.1H849v-5.2h19.9V354c-4.8,5.1-10.6,8-18.2,8c-16.7,0-24.5-11.3-24.5-23.9
					c-0.1-14,9.1-24.8,24.4-24.8c6.2,0,12.5,2.3,17.2,7L864.5,324.1z"/>
				<path id="XMLID_292_" class="st6" d="M900.7,319.4v-5.2h37.8v5.2h-16v41.7h-5.8v-41.7H900.7z"/>
				<polygon id="XMLID_291_" class="st6" points="990.8,314.2 984.2,314.2 963.2,361.1 969.6,361.1 987.5,320.1 1005.5,361.1 
					1011.8,361.1 				"/>
				<path id="XMLID_289_" class="st6" d="M1046,314.2h5.8v46.9h-5.8V314.2z"/>
			</g>
			<g id="XMLID_223_">
				<path id="XMLID_286_" class="st7" d="M602.9,450.1h-0.4l-5.1-7.1v11.5h-1.7v-14h2.1l4.9,7.2l4.9-7.2h2.1v14H608V443L602.9,450.1
					z"/>
				<path id="XMLID_283_" class="st7" d="M623.2,440.5l6.3,14h-1.9l-1.4-3.1h-8l-1.4,3.1H615l6.3-14H623.2z M622.2,442.3l-3.3,7.6
					h6.6L622.2,442.3z"/>
				<path id="XMLID_281_" class="st7" d="M636,440.5l8.6,10.7v-10.7h1.7v14h-1.2l-8.6-10.7v10.7h-1.7v-14H636z"/>
				<path id="XMLID_279_" class="st7" d="M664.4,440.5v8.4c0,3.9-2.6,5.8-5.7,5.8c-3,0-5.7-1.9-5.7-5.8v-8.4h1.7v8.4
					c0,2.8,1.9,4.2,4,4.2c2.2,0,4-1.5,4-4.3v-8.4L664.4,440.5L664.4,440.5z"/>
				<path id="XMLID_277_" class="st7" d="M680.7,440.5v1.7h-8v4.9h7.6v1.6h-7.6v5.9H671v-14H680.7z"/>
				<path id="XMLID_274_" class="st7" d="M692.4,440.5l6.3,14h-1.9l-1.4-3.1h-8l-1.4,3.1h-1.9l6.3-14H692.4z M691.4,442.3l-3.3,7.6
					h6.6L691.4,442.3z"/>
				<path id="XMLID_272_" class="st7" d="M709.9,454.7c-4.9,0-7.3-3.4-7.3-7.1c0-3.7,2.4-7.3,7.3-7.3c1.9,0,3.7,0.7,5.1,2.1
					l-1.2,1.1c-1.1-1.1-2.5-1.6-3.9-1.6c-3.8,0-5.6,2.7-5.6,5.6c0,2.8,1.8,5.5,5.6,5.5c1.4,0,2.9-0.6,4-1.6l1.2,1.2
					C713.6,454,711.8,454.7,709.9,454.7z"/>
				<path id="XMLID_270_" class="st7" d="M719.2,442.1v-1.6h11.3v1.6h-4.8v12.4H724v-12.4H719.2z"/>
				<path id="XMLID_268_" class="st7" d="M747,440.5v8.4c0,3.9-2.6,5.8-5.7,5.8c-3,0-5.7-1.9-5.7-5.8v-8.4h1.7v8.4
					c0,2.8,1.9,4.2,4,4.2c2.2,0,4-1.5,4-4.3v-8.4L747,440.5L747,440.5z"/>
				<path id="XMLID_265_" class="st7" d="M758.8,449.5h-3.4v5h-1.7v-14h6.4c3.2,0,4.7,2.2,4.7,4.5c0,2.1-1.1,4.1-4,4.3l4.6,5.2h-2.2
					L758.8,449.5z M763,445c0-1.4-1-3-3-3h-4.6v5.8h4.5C762,447.9,763,446.6,763,445z"/>
				<path id="XMLID_263_" class="st7" d="M771,440.5h9.8v1.6h-8.1v4.4h7.8v1.6h-7.8v4.7h8.4v1.7H771V440.5z"/>
				<path id="XMLID_260_" class="st7" d="M792.2,449.5h-3.4v5h-1.7v-14h6.4c3.2,0,4.7,2.2,4.7,4.5c0,2.1-1.1,4.1-4,4.3l4.6,5.2h-2.2
					L792.2,449.5z M796.4,445c0-1.4-1-3-3-3h-4.6v5.8h4.5C795.4,447.9,796.4,446.6,796.4,445z"/>
				<path id="XMLID_258_" class="st7" d="M805.5,445.7H804v-5.2h1.5V445.7z"/>
				<path id="XMLID_256_" class="st7" d="M816.8,441.8c-1.8,0-3.7,0.7-3.7,2.4c0,1.5,1.7,2,3.8,2.3c2.8,0.4,5.6,1,5.6,4.2
					c0,3.1-3,4.2-5.7,4.2c-2.5,0-4.8-0.9-5.9-3.2l1.4-0.8c0.9,1.7,2.8,2.5,4.5,2.5c1.7,0,4-0.5,4-2.6c0-1.7-1.9-2.2-4-2.6
					c-2.7-0.4-5.3-1-5.3-3.9c0-2.9,2.9-3.9,5.4-3.9c2.1,0,4.1,0.4,5.3,2.5l-1.3,0.8C819.9,442.3,818.3,441.8,816.8,441.8z"/>
				<path id="XMLID_253_" class="st7" d="M841.6,449.5h-3.4v5h-1.7v-14h6.4c3.2,0,4.7,2.2,4.7,4.5c0,2.1-1.1,4.1-4,4.3l4.6,5.2H846
					L841.6,449.5z M845.8,445c0-1.4-1-3-3-3h-4.6v5.8h4.5C844.9,447.9,845.8,446.6,845.8,445z"/>
				<path id="XMLID_251_" class="st7" d="M853.8,440.5h9.8v1.6h-8.1v4.4h7.8v1.6h-7.8v4.7h8.4v1.7h-10.2V440.5z"/>
				<path id="XMLID_248_" class="st7" d="M871.6,454.5h-1.7v-14h6.4c6.4,0,6.4,9.5,0,9.5h-4.6V454.5z M876.3,442.1h-4.6v6.2h4.6
					C880.4,448.4,880.4,442.1,876.3,442.1z"/>
				<path id="XMLID_245_" class="st7" d="M891.8,449.5h-3.4v5h-1.7v-14h6.4c3.2,0,4.7,2.2,4.7,4.5c0,2.1-1.1,4.1-4,4.3l4.6,5.2h-2.2
					L891.8,449.5z M896,445c0-1.4-1-3-3-3h-4.6v5.8h4.5C895,447.9,896,446.6,896,445z"/>
				<path id="XMLID_243_" class="st7" d="M904,440.5h9.8v1.6h-8.1v4.4h7.8v1.6h-7.8v4.7h8.4v1.7H904V440.5z"/>
				<path id="XMLID_241_" class="st7" d="M924.8,441.8c-1.8,0-3.7,0.7-3.7,2.4c0,1.5,1.7,2,3.8,2.3c2.8,0.4,5.6,1,5.6,4.2
					c0,3.1-3,4.2-5.7,4.2c-2.5,0-4.8-0.9-5.9-3.2l1.4-0.8c0.9,1.7,2.8,2.5,4.5,2.5c1.7,0,4-0.5,4-2.6c0-1.7-1.9-2.2-4-2.6
					c-2.7-0.4-5.3-1-5.3-3.9c0-2.9,2.9-3.9,5.4-3.9c2.1,0,4.1,0.4,5.3,2.5l-1.3,0.8C928,442.3,926.3,441.8,924.8,441.8z"/>
				<path id="XMLID_239_" class="st7" d="M936.3,440.5h9.8v1.6H938v4.4h7.8v1.6H938v4.7h8.4v1.7h-10.2V440.5z"/>
				<path id="XMLID_237_" class="st7" d="M953.6,440.5l8.6,10.7v-10.7h1.7v14h-1.2l-8.6-10.7v10.7h-1.7v-14H953.6z"/>
				<path id="XMLID_235_" class="st7" d="M969.2,442.1v-1.6h11.3v1.6h-4.8v12.4H974v-12.4H969.2z"/>
				<path id="XMLID_232_" class="st7" d="M991.2,440.5l6.3,14h-1.9l-1.4-3.1h-8l-1.4,3.1h-1.9l6.3-14H991.2z M990.2,442.3l-3.3,7.6
					h6.6L990.2,442.3z"/>
				<path id="XMLID_230_" class="st7" d="M999.9,442.1v-1.6h11.3v1.6h-4.8v12.4h-1.7v-12.4H999.9z"/>
				<path id="XMLID_228_" class="st7" d="M1016.5,440.5h1.7v14h-1.7V440.5z"/>
				<path id="XMLID_226_" class="st7" d="M1025.5,440.5l4.8,12l4.8-12h1.9l-5.8,14h-1.9l-5.8-14H1025.5z"/>
				<path id="XMLID_224_" class="st7" d="M1042.4,440.5h9.8v1.6h-8.1v4.4h7.8v1.6h-7.8v4.7h8.4v1.7h-10.2V440.5z"/>
			</g>
			<g id="XMLID_208_">
				<path id="XMLID_214_" class="st6" d="M769,411.4c2.9-3.5,5.4-7.4,7.6-11.6c0.9-1.8,1.6-3.4,2-4.8c2.8,1.3,4.2,2.2,4.2,2.7
					c0,0.5-0.7,0.8-2,0.8c-3.1,5.1-6.5,9.3-10.2,12.7c3.4-0.5,6.1-0.9,7.9-1.3c0.5-1.7,0.9-3.2,1-4.4c2,0.7,3.2,1.1,3.7,1.3
					c0.7,0.3,1,0.6,1,0.9c0,0.4-0.6,0.8-1.9,1c-1.5,4.7-3.8,8.5-6.7,11.5c-2.5,2.6-5.8,4.8-9.7,6.6c0,0-0.1,0-0.1,0
					c-0.3,0-0.4-0.2-0.4-0.5c0-0.1,0-0.2,0.1-0.2c3.1-1.9,5.7-4.3,8.1-7.3c2-2.5,3.5-5,4.5-7.7c-2.6,1.2-6.1,2.3-10.6,3.4
					c-0.2,1.1-0.5,1.7-0.9,1.7c-0.5,0-1.2-1.6-2-4.7C765.6,411.7,767,411.6,769,411.4z M786.7,384.5v-3.5c0-0.8-0.1-2-0.3-3.6
					c2.4,0.3,4,0.5,4.7,0.8c0.5,0.2,0.8,0.4,0.8,0.7c0,0.5-0.6,0.9-1.9,1.5v4.1H806c1.7-1.9,2.7-2.9,3-2.9c0.3,0,1.3,0.7,3.1,2.2
					c0.8,0.7,1.2,1.2,1.2,1.5c0,0.3-0.3,0.5-0.8,0.5h-43c-1.3,0-2.6,0.1-4.1,0.3l-0.5-2c1.5,0.2,3,0.3,4.6,0.3H786.7z M769.8,397.4
					c1-1.7,2-3.8,2.9-6.3c0.5-1.4,0.8-2.6,0.9-3.7c2.1,0.7,3.5,1.2,4.1,1.5c0.4,0.2,0.7,0.5,0.7,0.7c0,0.3-0.1,0.5-0.4,0.7
					c-0.3,0.1-0.8,0.2-1.6,0.4c-1.9,3-3.7,5.4-5.7,7.2c1.7,1.1,2.5,2.2,2.5,3.4c0,0.6-0.2,1.1-0.6,1.5c-0.3,0.3-0.7,0.5-1.1,0.5
					c-0.5,0-1-0.5-1.5-1.5c-1-2.2-2.5-4-4.6-5.5c-0.1-0.1-0.1-0.1-0.1-0.2c0-0.2,0.1-0.4,0.3-0.4c0,0,0.1,0,0.1,0
					C767.4,396.2,768.7,396.8,769.8,397.4z M800.9,404.8h4.7c1.3-1.6,2.1-2.4,2.4-2.4c0.3,0,1.1,0.6,2.5,1.8
					c0.7,0.7,1.1,1.1,1.1,1.4c0,0.4-0.3,0.5-0.8,0.5h-10v7h4.9c1.4-1.6,2.2-2.3,2.4-2.3c0.2,0,1.1,0.6,2.6,1.9c0.7,0.5,1,1,1,1.3
					c0,0.3-0.3,0.5-0.8,0.5h-10.1v8.1h6.3c1.5-1.7,2.3-2.5,2.6-2.5c0.3,0,1.2,0.7,2.8,2c0.8,0.6,1.1,1.1,1.1,1.4
					c0,0.3-0.2,0.5-0.7,0.5h-22.8v1.8c0,0.9-0.7,1.4-2,1.4c-0.6,0-1-0.1-1.2-0.3c-0.2-0.2-0.3-0.5-0.3-1l0.2-14.2
					c0-3.3,0.1-7.2,0.2-11.7c-1.6,1.8-3.4,3.5-5.4,5c-0.1,0-0.1,0.1-0.1,0.1c-0.3,0-0.5-0.2-0.5-0.6c0-0.1,0-0.1,0.1-0.1
					c1.9-2,3.7-4.3,5.3-6.9c1.4-2.2,2.4-4.2,3.1-6.1c0.5-1.3,0.9-2.6,1.1-3.9c2,0.6,3.2,1,3.8,1.3s0.9,0.5,0.9,0.8
					c0,0.4-0.7,0.7-2,0.9c-1,2.1-2.1,4.1-3.4,6l0.3,0.2h7.2c1.1-2.4,2-4.4,2.5-6.2c0.3-1.2,0.5-2.2,0.6-2.9c2.1,0.7,3.4,1.2,3.9,1.3
					c0.5,0.2,0.7,0.5,0.7,0.8c0,0.5-0.7,0.8-2,0.9c-1.3,2.1-2.8,4.2-4.5,6.1h7.6c1.4-1.6,2.3-2.4,2.5-2.4c0.3,0,1.2,0.6,2.7,1.9
					c0.7,0.6,1.1,1,1.1,1.3c0,0.4-0.3,0.5-0.8,0.5h-11.2V404.8z M797.9,404.8v-6.9h-7.6v6.9H797.9z M797.9,406.1h-7.6v7h7.6V406.1z
					 M797.9,414.5h-7.6c0,3.6,0,6.3,0.1,8.1h7.5V414.5z"/>
				<path id="XMLID_209_" class="st6" d="M848.8,394.5c-0.9,6.6-2.8,12-5.7,16.4c-4.4,6.6-10.6,11.6-18.5,15c0,0,0,0-0.1,0
					c-0.3,0-0.4-0.2-0.4-0.5c0-0.1,0-0.2,0.1-0.2c7.5-4.5,13.1-10.2,16.7-16.9c2.3-4.3,3.8-9.3,4.5-14.7h-16c-1.6,0-3,0.1-4.2,0.3
					l-0.6-2c1.5,0.2,3.1,0.4,4.8,0.4h16.1c0.3-3.1,0.5-6.5,0.5-10.3c0-0.9-0.1-2.1-0.3-3.5c2.5,0.3,4.1,0.6,4.9,0.9
					c0.6,0.2,0.8,0.5,0.8,0.8c0,0.5-0.6,1-1.8,1.5c0,1,0,2.4-0.1,4.2c-0.1,2.2-0.2,4.3-0.4,6.5h16c1.7-2.1,2.8-3.2,3.1-3.2
					c0.4,0,1.5,0.8,3.4,2.4c0.9,0.8,1.3,1.3,1.3,1.6c0,0.3-0.3,0.5-0.8,0.5h-22.3c2,7.5,5.3,13.9,10,19c3.6,3.9,8.2,6.9,13.7,9.1
					c0.1,0,0.2,0.1,0.2,0.2c0,0.2-0.1,0.3-0.3,0.4c-1.1,0.3-1.9,1.1-2.3,2.3c-0.2,0.4-0.4,0.7-0.8,0.7c-0.3,0-1-0.4-2.2-1.1
					c-4-2.5-7.6-5.9-10.9-10.2C853.2,408.9,850.4,402.4,848.8,394.5z M844.6,412.7c0,0-0.1-0.1-0.1-0.1c0-0.2,0.1-0.3,0.3-0.3
					c0,0,0.1,0,0.1,0c2.5,1.1,4.4,2.6,5.9,4.3c1.3,1.5,1.9,2.9,1.9,4.2c0,0.8-0.2,1.4-0.6,2c-0.4,0.4-0.8,0.6-1.3,0.6
					c-0.9,0-1.5-0.8-1.8-2.3C848.4,418,846.9,415.2,844.6,412.7z"/>
			</g>
			<g id="XMLID_203_">
				<rect id="XMLID_205_" x="600.2" y="400.3" class="st4" width="144" height="4"/>
				<rect id="XMLID_204_" x="894.1" y="400.3" class="st4" width="154" height="4"/>
			</g>
		</g>
	</g>
</g>
<g id="Layer_1_copy" class="st0">
	<rect id="XMLID_206_" class="st8" width="1366" height="768"/>
	<g id="XMLID_104_" class="st2">
		<g id="XMLID_105_">
			<g id="XMLID_186_">
				<path id="XMLID_199_" class="st6" d="M500.7,428.4v-0.2h5.7l11.3,17.8l11.5-17.8h5.7v0.2l-14.8,22.1v15.2h-4.8v-15.2
					L500.7,428.4z"/>
				<path id="XMLID_196_" class="st6" d="M595.6,447.1c-0.1,9.8-6.2,19.4-19,19.4c-12.9,0-19.1-9.5-19.1-19.4
					c0-10.9,7.3-19.5,19.1-19.5C589.3,427.7,595.6,437.2,595.6,447.1z M576.6,431.9c-9.5,0-14.5,7-14.5,15.2c0,7.6,4.6,15,14.5,15
					c9.9,0,14.3-7.6,14.3-15C590.9,439.5,586.4,432,576.6,431.9z"/>
				<path id="XMLID_194_" class="st6" d="M627.9,428.2l23,28.7v-28.7h4.6v37.5h-3.2l-23.1-28.6v28.6h-4.6v-37.5H627.9z"/>
				<path id="XMLID_192_" class="st6" d="M715.3,436.2c-2.9-2.8-7.3-4.4-11.1-4.4c-9.7,0-14.9,7.2-14.9,15.5c0,7.6,4.8,14.7,15,14.7
					c3.5,0,7.1-1.1,10.2-3.8v-8.9h-11.7v-4.1h15.9v14.9c-3.8,4.1-8.5,6.4-14.5,6.4c-13.4,0-19.6-9.1-19.6-19.1
					c-0.1-11.2,7.3-19.8,19.5-19.8c5,0,10,1.9,13.8,5.6L715.3,436.2z"/>
				<path id="XMLID_190_" class="st6" d="M744.3,432.4v-4.2h30.2v4.2h-12.8v33.4h-4.6v-33.4H744.3z"/>
				<polygon id="XMLID_189_" class="st6" points="816.4,428.2 811.1,428.2 794.3,465.8 799.4,465.8 813.8,433 828.2,465.8 
					833.2,465.8 				"/>
				<path id="XMLID_187_" class="st6" d="M860.6,428.2h4.7v37.5h-4.7V428.2z"/>
			</g>
			<g id="XMLID_121_">
				<path id="XMLID_184_" class="st7" d="M505.9,537h-0.3l-4.1-5.7v9.2h-1.4v-11.2h1.7l3.9,5.8l3.9-5.8h1.7v11.2H510v-9.2L505.9,537
					z"/>
				<path id="XMLID_181_" class="st7" d="M522.2,529.4l5,11.2h-1.5l-1.1-2.5h-6.4l-1.1,2.5h-1.5l5-11.2H522.2z M521.4,530.8
					l-2.7,6.1h5.3L521.4,530.8z"/>
				<path id="XMLID_179_" class="st7" d="M532.4,529.4l6.9,8.6v-8.6h1.4v11.2h-1l-6.9-8.6v8.6h-1.4v-11.2H532.4z"/>
				<path id="XMLID_177_" class="st7" d="M555.1,529.4v6.7c0,3.1-2.1,4.7-4.5,4.7c-2.4,0-4.6-1.5-4.6-4.7v-6.7h1.4v6.7
					c0,2.2,1.5,3.4,3.2,3.4c1.7,0,3.2-1.2,3.2-3.4v-6.7L555.1,529.4L555.1,529.4z"/>
				<path id="XMLID_175_" class="st7" d="M568.2,529.4v1.3h-6.4v3.9h6.1v1.3h-6.1v4.7h-1.4v-11.2H568.2z"/>
				<path id="XMLID_172_" class="st7" d="M577.6,529.4l5,11.2h-1.5l-1.1-2.5h-6.4l-1.1,2.5H571l5-11.2H577.6z M576.8,530.8l-2.7,6.1
					h5.3L576.8,530.8z"/>
				<path id="XMLID_170_" class="st7" d="M591.5,540.7c-4,0-5.8-2.7-5.8-5.7c0-3,1.9-5.8,5.8-5.8c1.5,0,3,0.6,4.1,1.7l-1,0.9
					c-0.9-0.8-2-1.2-3.1-1.2c-3,0-4.5,2.2-4.5,4.5c0,2.3,1.4,4.4,4.5,4.4c1.1,0,2.3-0.4,3.2-1.3l1,1
					C594.6,540.2,593.1,540.7,591.5,540.7z"/>
				<path id="XMLID_168_" class="st7" d="M599,530.6v-1.2h9v1.2h-3.8v10h-1.4v-10H599z"/>
				<path id="XMLID_166_" class="st7" d="M621.3,529.4v6.7c0,3.1-2.1,4.7-4.5,4.7c-2.4,0-4.6-1.5-4.6-4.7v-6.7h1.4v6.7
					c0,2.2,1.5,3.4,3.2,3.4c1.7,0,3.2-1.2,3.2-3.4v-6.7L621.3,529.4L621.3,529.4z"/>
				<path id="XMLID_163_" class="st7" d="M630.7,536.5H628v4h-1.4v-11.2h5.1c2.5,0,3.8,1.8,3.8,3.6c0,1.7-0.9,3.3-3.2,3.5l3.7,4.1
					h-1.8L630.7,536.5z M634.1,533c0-1.1-0.8-2.4-2.4-2.4H628v4.7h3.6C633.3,535.3,634.1,534.2,634.1,533z"/>
				<path id="XMLID_161_" class="st7" d="M640.4,529.4h7.9v1.3h-6.5v3.5h6.2v1.3h-6.2v3.8h6.8v1.3h-8.1V529.4z"/>
				<path id="XMLID_158_" class="st7" d="M657.4,536.5h-2.7v4h-1.4v-11.2h5.1c2.5,0,3.8,1.8,3.8,3.6c0,1.7-0.9,3.3-3.2,3.5l3.7,4.1
					h-1.8L657.4,536.5z M660.8,533c0-1.1-0.8-2.4-2.4-2.4h-3.7v4.7h3.6C660,535.3,660.8,534.2,660.8,533z"/>
				<path id="XMLID_156_" class="st7" d="M668.1,533.5h-1.2v-4.2h1.2V533.5z"/>
				<path id="XMLID_154_" class="st7" d="M677.1,530.4c-1.4,0-2.9,0.6-2.9,1.9c0,1.2,1.4,1.6,3,1.8c2.2,0.4,4.5,0.8,4.5,3.3
					c0,2.5-2.4,3.3-4.6,3.3c-2,0-3.9-0.7-4.7-2.6l1.2-0.7c0.7,1.3,2.2,2,3.6,2c1.4,0,3.2-0.4,3.2-2.1c0-1.4-1.6-1.8-3.2-2
					c-2.2-0.3-4.3-0.8-4.3-3.1c0-2.3,2.4-3.1,4.3-3.1c1.7,0,3.3,0.3,4.2,2l-1.1,0.7C679.6,530.8,678.3,530.4,677.1,530.4z"/>
				<path id="XMLID_151_" class="st7" d="M697,536.5h-2.7v4h-1.4v-11.2h5.1c2.5,0,3.8,1.8,3.8,3.6c0,1.7-0.9,3.3-3.2,3.5l3.7,4.1
					h-1.8L697,536.5z M700.4,533c0-1.1-0.8-2.4-2.4-2.4h-3.7v4.7h3.6C699.6,535.3,700.4,534.2,700.4,533z"/>
				<path id="XMLID_149_" class="st7" d="M706.7,529.4h7.9v1.3h-6.5v3.5h6.2v1.3h-6.2v3.8h6.8v1.3h-8.1V529.4z"/>
				<path id="XMLID_146_" class="st7" d="M721,540.6h-1.4v-11.2h5.1c5.2,0,5.2,7.6,0,7.6H721V540.6z M724.7,530.7H721v5h3.7
					C728,535.7,728,530.7,724.7,530.7z"/>
				<path id="XMLID_143_" class="st7" d="M737.2,536.5h-2.7v4H733v-11.2h5.1c2.5,0,3.8,1.8,3.8,3.6c0,1.7-0.9,3.3-3.2,3.5l3.7,4.1
					h-1.8L737.2,536.5z M740.5,533c0-1.1-0.8-2.4-2.4-2.4h-3.7v4.7h3.6C739.7,535.3,740.5,534.2,740.5,533z"/>
				<path id="XMLID_141_" class="st7" d="M746.9,529.4h7.9v1.3h-6.5v3.5h6.2v1.3h-6.2v3.8h6.8v1.3h-8.1V529.4z"/>
				<path id="XMLID_139_" class="st7" d="M763.6,530.4c-1.4,0-2.9,0.6-2.9,1.9c0,1.2,1.4,1.6,3,1.8c2.2,0.4,4.5,0.8,4.5,3.3
					c0,2.5-2.4,3.3-4.6,3.3c-2,0-3.9-0.7-4.7-2.6l1.2-0.7c0.7,1.3,2.2,2,3.6,2c1.4,0,3.2-0.4,3.2-2.1c0-1.4-1.6-1.8-3.2-2
					c-2.2-0.3-4.3-0.8-4.3-3.1c0-2.3,2.4-3.1,4.3-3.1c1.7,0,3.3,0.3,4.2,2l-1.1,0.7C766.1,530.8,764.8,530.4,763.6,530.4z"/>
				<path id="XMLID_137_" class="st7" d="M772.8,529.4h7.9v1.3h-6.5v3.5h6.2v1.3h-6.2v3.8h6.8v1.3h-8.1V529.4z"/>
				<path id="XMLID_135_" class="st7" d="M786.6,529.4l6.9,8.6v-8.6h1.4v11.2h-1L787,532v8.6h-1.4v-11.2H786.6z"/>
				<path id="XMLID_133_" class="st7" d="M799.1,530.6v-1.2h9v1.2h-3.8v10h-1.4v-10H799.1z"/>
				<path id="XMLID_130_" class="st7" d="M816.7,529.4l5,11.2h-1.5l-1.1-2.5h-6.4l-1.1,2.5h-1.5l5-11.2H816.7z M815.9,530.8
					l-2.7,6.1h5.3L815.9,530.8z"/>
				<path id="XMLID_128_" class="st7" d="M823.7,530.6v-1.2h9v1.2h-3.8v10h-1.4v-10H823.7z"/>
				<path id="XMLID_126_" class="st7" d="M837,529.4h1.4v11.2H837V529.4z"/>
				<path id="XMLID_124_" class="st7" d="M844.2,529.4l3.8,9.6l3.9-9.6h1.5l-4.6,11.2h-1.5l-4.6-11.2H844.2z"/>
				<path id="XMLID_122_" class="st7" d="M857.7,529.4h7.9v1.3h-6.5v3.5h6.2v1.3h-6.2v3.8h6.8v1.3h-8.1V529.4z"/>
			</g>
			<g id="XMLID_109_">
				<path id="XMLID_113_" class="st6" d="M638.9,506.1c2.3-2.8,4.3-5.9,6.1-9.3c0.7-1.5,1.2-2.8,1.6-3.9c2.3,1.1,3.4,1.8,3.4,2.2
					c0,0.4-0.5,0.6-1.6,0.7c-2.5,4.1-5.2,7.5-8.2,10.2c2.8-0.4,4.8-0.7,6.3-1c0.4-1.4,0.7-2.6,0.8-3.6c1.6,0.5,2.5,0.9,2.9,1.1
					c0.5,0.3,0.8,0.5,0.8,0.7c0,0.3-0.5,0.6-1.5,0.8c-1.2,3.7-3,6.8-5.3,9.2c-2,2.1-4.6,3.9-7.7,5.3c0,0,0,0-0.1,0
					c-0.2,0-0.4-0.1-0.4-0.4c0-0.1,0-0.1,0.1-0.1c2.4-1.5,4.6-3.5,6.5-5.8c1.6-2,2.8-4,3.6-6.1c-2.1,0.9-4.9,1.8-8.4,2.7
					c-0.2,0.9-0.4,1.3-0.7,1.3c-0.4,0-1-1.2-1.6-3.7C636.1,506.3,637.3,506.2,638.9,506.1z M653,484.6v-2.8c0-0.6-0.1-1.6-0.2-2.9
					c1.9,0.2,3.2,0.4,3.8,0.6c0.4,0.2,0.6,0.4,0.6,0.6c0,0.4-0.5,0.8-1.5,1.2v3.3h12.7c1.4-1.5,2.2-2.3,2.4-2.3
					c0.2,0,1.1,0.6,2.5,1.8c0.7,0.6,1,1,1,1.2c0,0.3-0.2,0.4-0.6,0.4h-34.4c-1,0-2.1,0.1-3.3,0.3l-0.4-1.6c1.2,0.2,2.4,0.3,3.6,0.3
					H653z M639.5,494.8c0.8-1.3,1.6-3,2.3-5.1c0.4-1.1,0.6-2.1,0.7-3c1.7,0.6,2.8,1,3.3,1.2c0.4,0.2,0.5,0.4,0.5,0.6
					c0,0.2-0.1,0.4-0.4,0.5c-0.2,0.1-0.6,0.2-1.2,0.3c-1.5,2.4-3,4.3-4.6,5.8c1.3,0.9,2,1.8,2,2.7c0,0.5-0.2,0.9-0.5,1.2
					c-0.3,0.3-0.5,0.4-0.9,0.4c-0.4,0-0.8-0.4-1.2-1.2c-0.8-1.8-2-3.2-3.6-4.4c-0.1,0-0.1-0.1-0.1-0.2c0-0.2,0.1-0.3,0.3-0.3
					c0,0,0,0,0.1,0C637.6,493.9,638.6,494.4,639.5,494.8z M664.4,500.8h3.8c1.1-1.3,1.7-1.9,1.9-1.9c0.2,0,0.9,0.5,2,1.4
					c0.6,0.5,0.9,0.9,0.9,1.1c0,0.3-0.2,0.4-0.6,0.4h-8v5.6h3.9c1.1-1.2,1.7-1.9,1.9-1.9c0.2,0,0.9,0.5,2.1,1.5
					c0.5,0.4,0.8,0.8,0.8,1.1c0,0.3-0.2,0.4-0.6,0.4h-8.1v6.5h5.1c1.2-1.4,1.9-2,2.1-2c0.2,0,1,0.5,2.2,1.6c0.6,0.5,0.9,0.9,0.9,1.1
					c0,0.3-0.2,0.4-0.6,0.4H656v1.4c0,0.7-0.5,1.1-1.6,1.1c-0.5,0-0.8-0.1-0.9-0.3c-0.2-0.1-0.2-0.4-0.2-0.8l0.1-11.4
					c0-2.6,0.1-5.7,0.2-9.4c-1.3,1.5-2.7,2.8-4.3,4c0,0-0.1,0-0.1,0c-0.3,0-0.4-0.1-0.4-0.4c0,0,0-0.1,0-0.1
					c1.5-1.6,2.9-3.4,4.3-5.5c1.1-1.7,1.9-3.3,2.5-4.9c0.4-1.1,0.7-2.1,0.9-3.1c1.6,0.5,2.6,0.8,3,1c0.5,0.2,0.7,0.4,0.7,0.7
					c0,0.3-0.5,0.6-1.6,0.7c-0.8,1.7-1.7,3.3-2.7,4.8l0.3,0.2h5.8c0.9-1.9,1.6-3.5,2-5c0.3-1,0.4-1.7,0.5-2.3
					c1.7,0.6,2.7,0.9,3.1,1.1c0.4,0.2,0.6,0.4,0.6,0.6c0,0.4-0.5,0.6-1.6,0.7c-1,1.7-2.2,3.3-3.6,4.8h6.1c1.1-1.3,1.8-1.9,2-1.9
					c0.2,0,0.9,0.5,2.2,1.5c0.6,0.5,0.9,0.8,0.9,1.1c0,0.3-0.2,0.4-0.6,0.4h-8.9V500.8z M662,500.8v-5.5h-6.1v5.5H662z M662,501.9
					h-6.1v5.6h6.1V501.9z M662,508.5h-6.1c0,2.9,0,5.1,0,6.5h6V508.5z"/>
				<path id="XMLID_110_" class="st6" d="M702.7,492.5c-0.7,5.3-2.2,9.6-4.6,13.1c-3.5,5.3-8.5,9.3-14.8,12c0,0,0,0-0.1,0
					c-0.2,0-0.3-0.1-0.3-0.4c0-0.1,0-0.1,0.1-0.2c6-3.6,10.5-8.1,13.4-13.5c1.8-3.5,3-7.4,3.6-11.8h-12.8c-1.2,0-2.4,0.1-3.4,0.3
					l-0.4-1.6c1.2,0.2,2.5,0.3,3.8,0.3h12.9c0.3-2.4,0.4-5.2,0.4-8.3c0-0.7-0.1-1.6-0.3-2.8c2,0.3,3.3,0.5,3.9,0.7
					c0.5,0.2,0.7,0.4,0.7,0.6c0,0.4-0.5,0.8-1.4,1.2c0,0.8,0,1.9-0.1,3.4c0,1.7-0.2,3.4-0.3,5.2h12.8c1.4-1.7,2.2-2.6,2.5-2.6
					c0.3,0,1.2,0.6,2.7,1.9c0.7,0.6,1,1.1,1,1.3c0,0.3-0.2,0.4-0.6,0.4h-17.8c1.6,6,4.2,11.1,8,15.2c2.9,3.1,6.5,5.6,11,7.3
					c0.1,0,0.1,0.1,0.1,0.2c0,0.1-0.1,0.2-0.3,0.3c-0.9,0.3-1.5,0.9-1.9,1.9c-0.2,0.4-0.4,0.5-0.6,0.5c-0.2,0-0.8-0.3-1.8-0.9
					c-3.2-2-6.1-4.7-8.7-8.2C706.3,504.1,704.1,498.9,702.7,492.5z M699.4,507.1C699.3,507.1,699.3,507.1,699.4,507.1
					c0-0.2,0-0.3,0.2-0.3c0,0,0.1,0,0.1,0c2,0.9,3.5,2.1,4.7,3.5c1,1.2,1.5,2.3,1.5,3.4c0,0.6-0.2,1.2-0.5,1.6
					c-0.3,0.3-0.6,0.5-1,0.5c-0.7,0-1.2-0.6-1.5-1.9C702.4,511.3,701.2,509.1,699.4,507.1z"/>
			</g>
			<g id="XMLID_106_">
				<rect id="XMLID_108_" x="503.7" y="497.2" class="st4" width="115.2" height="3.2"/>
				<rect id="XMLID_107_" x="739" y="497.2" class="st4" width="123.2" height="3.2"/>
			</g>
		</g>
		<g id="XMLID_207_">
			<polygon id="XMLID_210_" class="st4" points="585.5,391 680.2,227.2 680.2,336.9 			"/>
			<polygon id="XMLID_211_" class="st4" points="589.4,397.6 777.1,397.6 683.6,343.1 			"/>
			<polygon id="XMLID_215_" class="st4" points="780.5,391 685.8,336.9 685.8,227.8 			"/>
		</g>
	</g>
</g>
</svg>
