<svg id="Layer_1_copy_3" data-name="Layer 1 copy 3" xmlns="http://www.w3.org/2000/svg" viewBox="0 0 1366 768"><defs><style>.cls-1{fill:#1a1a1a;}.cls-2{fill:#666;}.cls-3{fill:#b3b3b3;}.cls-4{fill:#e6e6e6;}</style></defs><title>Artboard 1</title><rect id="_Rectangle_" data-name="&lt;Rectangle&gt;" class="cls-1" width="1366" height="768"/><g id="_Group_" data-name="&lt;Group&gt;"><g id="_Group_2" data-name="&lt;Group&gt;"><path id="_Compound_Path_" data-name="&lt;Compound Path&gt;" class="cls-2" d="M790.93,359.2,701.79,204.82,612.66,359.2H647.8l3.76-6.5H623.93l43.91-76.06,43.91,76.06H664.08l21.33-36.95-3.76-6.51-37,64.06H586.34L655,254.39l6.59,11.41,3.75-6.51L655,241.38,575.07,379.8h65.84l-11.26,19.52H789.48L766.32,359.2ZM671.59,270.14l30.2-52.31L779.66,352.7H762.57l-53-91.8-19.14,33.16,3.75,6.51,15.39-26.66,45.49,78.79H719.26ZM660.32,359.2H715.5l8.14,14.1H652.18Zm117.9,33.62H640.91l7.52-13h86.48L723,359.2h35.79Z"/><g id="_Group_3" data-name="&lt;Group&gt;"><g id="_Group_4" data-name="&lt;Group&gt;"><path id="_Compound_Path_2" data-name="&lt;Compound Path&gt;" class="cls-3" d="M476.09,435.59v-.18h6.45l12.79,20.21,13.09-20.21h6.45v.18l-16.8,25.15V478h-5.48V460.74Z"/><path id="_Compound_Path_3" data-name="&lt;Compound Path&gt;" class="cls-3" d="M583.73,456.84c-.06,11.14-7,22-21.61,22s-21.68-10.84-21.68-22c0-12.36,8.28-22.16,21.74-22.16C576.61,434.74,583.79,445.58,583.73,456.84Zm-21.55-17.29c-10.84,0-16.44,8-16.44,17.29,0,8.65,5.23,17.05,16.44,17.05s16.25-8.65,16.25-17.05C578.49,448.2,573.32,439.67,562.18,439.55Z"/><path id="_Compound_Path_4" data-name="&lt;Compound Path&gt;" class="cls-3" d="M620.44,435.41,646.56,468V435.41h5.24V478h-3.66L622,445.52V478h-5.23V435.41Z"/><path id="_Compound_Path_5" data-name="&lt;Compound Path&gt;" class="cls-3" d="M719.68,444.48a18.84,18.84,0,0,0-12.6-5c-11,0-16.93,8.22-16.93,17.59,0,8.65,5.48,16.75,17.05,16.75a17.53,17.53,0,0,0,11.63-4.32V459.4H705.56v-4.69h18.08v16.87a21.56,21.56,0,0,1-16.5,7.24c-15.16,0-22.22-10.29-22.22-21.74-.06-12.72,8.28-22.52,22.16-22.52A22.25,22.25,0,0,1,722.73,441Z"/><path id="_Compound_Path_6" data-name="&lt;Compound Path&gt;" class="cls-3" d="M752.56,440.16v-4.75H786.9v4.75H772.35V478h-5.24V440.16Z"/><polygon id="_Path_" data-name="&lt;Path&gt;" class="cls-3" points="834.45 435.41 828.48 435.41 809.36 478.03 815.15 478.03 831.47 440.77 847.84 478.03 853.57 478.03 834.45 435.41"/><path id="_Compound_Path_7" data-name="&lt;Compound Path&gt;" class="cls-3" d="M884.62,435.41h5.29V478h-5.29Z"/></g><g id="_Group_5" data-name="&lt;Group&gt;"><path id="_Compound_Path_8" data-name="&lt;Compound Path&gt;" class="cls-4" d="M482,558.93h-.33L477,552.46v10.47h-1.56V550.2h1.89l4.47,6.55,4.44-6.55h1.89v12.73h-1.57V552.5Z"/><path id="_Compound_Path_9" data-name="&lt;Compound Path&gt;" class="cls-4" d="M500.42,550.2l5.71,12.73h-1.71l-1.25-2.8H495.9l-1.24,2.8h-1.73l5.71-12.73Zm-.89,1.6-3,6.88h6Z"/><path id="_Compound_Path_10" data-name="&lt;Compound Path&gt;" class="cls-4" d="M512,550.2l7.8,9.75V550.2h1.57v12.73h-1.09l-7.82-9.71v9.71h-1.56V550.2Z"/><path id="_Compound_Path_11" data-name="&lt;Compound Path&gt;" class="cls-4" d="M537.81,550.22v7.64a4.94,4.94,0,0,1-5.17,5.31,5,5,0,0,1-5.21-5.31v-7.64H529v7.64a3.63,3.63,0,1,0,7.25,0V550.2h1.55Z"/><path id="_Compound_Path_12" data-name="&lt;Compound Path&gt;" class="cls-4" d="M552.67,550.2v1.51h-7.25v4.44h6.94v1.47h-6.94V563h-1.58V550.2Z"/><path id="_Compound_Path_13" data-name="&lt;Compound Path&gt;" class="cls-4" d="M563.29,550.2,569,562.93h-1.71l-1.26-2.8h-7.27l-1.24,2.8H555.8l5.71-12.73Zm-.89,1.6-3,6.88h6Z"/><path id="_Compound_Path_14" data-name="&lt;Compound Path&gt;" class="cls-4" d="M579.15,563.13a6.2,6.2,0,0,1-6.63-6.49,6.3,6.3,0,0,1,6.63-6.64,6.62,6.62,0,0,1,4.66,1.91l-1.09,1a5.08,5.08,0,0,0-3.57-1.42,5.06,5.06,0,0,0,0,10.11,5.21,5.21,0,0,0,3.62-1.47l1.11,1.09A6.66,6.66,0,0,1,579.15,563.13Z"/><path id="_Compound_Path_15" data-name="&lt;Compound Path&gt;" class="cls-4" d="M587.62,551.62V550.2h10.25v1.42h-4.34v11.31H592V551.62Z"/><path id="_Compound_Path_16" data-name="&lt;Compound Path&gt;" class="cls-4" d="M612.9,550.22v7.64a4.93,4.93,0,0,1-5.16,5.31,5,5,0,0,1-5.22-5.31v-7.64h1.57v7.64a3.63,3.63,0,1,0,7.25,0V550.2h1.55Z"/><path id="_Compound_Path_17" data-name="&lt;Compound Path&gt;" class="cls-4" d="M623.61,558.35h-3.09v4.58h-1.58V550.2h5.78a4,4,0,0,1,4.31,4.08,3.69,3.69,0,0,1-3.66,3.94l4.2,4.71h-2Zm3.83-4a2.62,2.62,0,0,0-2.72-2.69h-4.2v5.31h4.12A2.51,2.51,0,0,0,627.44,554.31Z"/><path id="_Compound_Path_18" data-name="&lt;Compound Path&gt;" class="cls-4" d="M634.67,550.2h9v1.46h-7.38v4h7.07v1.47h-7.07v4.31h7.67v1.51h-9.24Z"/><path id="_Compound_Path_19" data-name="&lt;Compound Path&gt;" class="cls-4" d="M654,558.35h-3.09v4.58H649.3V550.2h5.79a4,4,0,0,1,4.3,4.08,3.68,3.68,0,0,1-3.65,3.94l4.2,4.71h-2Zm3.83-4a2.62,2.62,0,0,0-2.72-2.69h-4.2v5.31H655A2.51,2.51,0,0,0,657.81,554.31Z"/><path id="_Compound_Path_20" data-name="&lt;Compound Path&gt;" class="cls-4" d="M666.06,554.93H664.7v-4.76h1.36Z"/><path id="_Compound_Path_21" data-name="&lt;Compound Path&gt;" class="cls-4" d="M676.29,551.35c-1.61,0-3.34.64-3.34,2.18,0,1.38,1.58,1.78,3.45,2.09,2.55.4,5.06.91,5.06,3.78s-2.75,3.78-5.18,3.78c-2.26,0-4.4-.81-5.38-2.94l1.3-.76a4.64,4.64,0,0,0,4.09,2.23c1.55,0,3.6-.49,3.6-2.36,0-1.58-1.76-2-3.67-2.33-2.45-.38-4.83-.94-4.83-3.52s2.67-3.57,4.87-3.57c1.89,0,3.69.38,4.82,2.31l-1.2.75A4.26,4.26,0,0,0,676.29,551.35Z"/><path id="_Compound_Path_22" data-name="&lt;Compound Path&gt;" class="cls-4" d="M698.89,558.35h-3.1v4.58h-1.58V550.2H700a4,4,0,0,1,4.31,4.08,3.68,3.68,0,0,1-3.65,3.94l4.2,4.71h-2Zm3.83-4a2.62,2.62,0,0,0-2.73-2.69h-4.2v5.31h4.13A2.51,2.51,0,0,0,702.72,554.31Z"/><path id="_Compound_Path_23" data-name="&lt;Compound Path&gt;" class="cls-4" d="M710,550.2h8.94v1.46h-7.38v4h7.08v1.47h-7.08v4.31h7.68v1.51H710Z"/><path id="_Compound_Path_24" data-name="&lt;Compound Path&gt;" class="cls-4" d="M726.14,562.93h-1.56V550.2h5.78c5.86,0,5.86,8.6,0,8.62h-4.22Zm4.22-11.25h-4.22v5.67h4.22C734.11,557.35,734.11,551.68,730.36,551.68Z"/><path id="_Compound_Path_25" data-name="&lt;Compound Path&gt;" class="cls-4" d="M744.48,558.35h-3.09v4.58h-1.58V550.2h5.78a4,4,0,0,1,4.31,4.08,3.68,3.68,0,0,1-3.65,3.94l4.2,4.71h-2Zm3.84-4a2.62,2.62,0,0,0-2.73-2.69h-4.2v5.31h4.13A2.51,2.51,0,0,0,748.32,554.31Z"/><path id="_Compound_Path_26" data-name="&lt;Compound Path&gt;" class="cls-4" d="M755.55,550.2h8.94v1.46h-7.38v4h7.08v1.47h-7.08v4.31h7.67v1.51h-9.23Z"/><path id="_Compound_Path_27" data-name="&lt;Compound Path&gt;" class="cls-4" d="M774.45,551.35c-1.62,0-3.34.64-3.34,2.18,0,1.38,1.58,1.78,3.45,2.09,2.55.4,5.06.91,5.06,3.78s-2.75,3.78-5.19,3.78c-2.25,0-4.39-.81-5.38-2.94l1.31-.76a4.64,4.64,0,0,0,4.09,2.23c1.55,0,3.6-.49,3.6-2.36,0-1.58-1.76-2-3.67-2.33-2.45-.38-4.84-.94-4.84-3.52s2.68-3.57,4.88-3.57c1.89,0,3.69.38,4.81,2.31L778,553A4.23,4.23,0,0,0,774.45,551.35Z"/><path id="_Compound_Path_28" data-name="&lt;Compound Path&gt;" class="cls-4" d="M784.92,550.2h8.94v1.46h-7.38v4h7.07v1.47h-7.07v4.31h7.67v1.51h-9.23Z"/><path id="_Compound_Path_29" data-name="&lt;Compound Path&gt;" class="cls-4" d="M800.66,550.2l7.8,9.75V550.2H810v12.73h-1.09l-7.82-9.71v9.71h-1.56V550.2Z"/><path id="_Compound_Path_30" data-name="&lt;Compound Path&gt;" class="cls-4" d="M814.82,551.62V550.2h10.25v1.42h-4.35v11.31h-1.56V551.62Z"/><path id="_Compound_Path_31" data-name="&lt;Compound Path&gt;" class="cls-4" d="M834.79,550.2l5.71,12.73h-1.71l-1.25-2.8h-7.27l-1.24,2.8H827.3L833,550.2Zm-.89,1.6-3,6.88h6Z"/><path id="_Compound_Path_32" data-name="&lt;Compound Path&gt;" class="cls-4" d="M842.73,551.62V550.2H853v1.42h-4.34v11.31h-1.56V551.62Z"/><path id="_Compound_Path_33" data-name="&lt;Compound Path&gt;" class="cls-4" d="M857.78,550.2h1.58v12.73h-1.58Z"/><path id="_Compound_Path_34" data-name="&lt;Compound Path&gt;" class="cls-4" d="M866,550.2l4.34,10.88,4.38-10.88h1.75L871.19,563h-1.7l-5.28-12.77Z"/><path id="_Compound_Path_35" data-name="&lt;Compound Path&gt;" class="cls-4" d="M881.32,550.2h8.94v1.46h-7.38v4H890v1.47h-7.07v4.31h7.67v1.51h-9.23Z"/></g><g id="_Group_6" data-name="&lt;Group&gt;"><path id="_Compound_Path_36" data-name="&lt;Compound Path&gt;" class="cls-3" d="M632.89,523.77a60.89,60.89,0,0,0,6.9-10.53,30,30,0,0,0,1.8-4.38q3.85,1.8,3.85,2.45c0,.45-.59.7-1.78.75a53.7,53.7,0,0,1-9.26,11.56q4.7-.68,7.14-1.18a21.42,21.42,0,0,0,.94-4c1.78.59,2.89,1,3.34,1.2s.89.56.89.82-.58.68-1.75.89a25.55,25.55,0,0,1-14.84,16.46l-.07,0c-.27,0-.41-.15-.41-.44a.17.17,0,0,1,.08-.16,29.54,29.54,0,0,0,7.35-6.62,25.83,25.83,0,0,0,4.09-7,59.28,59.28,0,0,1-9.59,3.1c-.21,1-.48,1.52-.8,1.52q-.72,0-1.82-4.23C629.76,524,631.08,523.93,632.89,523.77ZM649,499.34v-3.15a29.87,29.87,0,0,0-.27-3.29,25.42,25.42,0,0,1,4.31.7c.48.17.72.4.72.67q0,.63-1.71,1.32v3.75h14.42c1.56-1.74,2.47-2.62,2.75-2.62a11,11,0,0,1,2.86,2c.75.66,1.13,1.12,1.13,1.4s-.24.43-.7.43H633.42a25.06,25.06,0,0,0-3.73.29l-.46-1.81a28.22,28.22,0,0,0,4.14.29ZM633.59,511a28.32,28.32,0,0,0,2.59-5.77,19.82,19.82,0,0,0,.84-3.39,32.68,32.68,0,0,1,3.73,1.39c.4.23.6.45.6.67a.61.61,0,0,1-.41.6,8.37,8.37,0,0,1-1.42.34,32.57,32.57,0,0,1-5.16,6.59c1.5,1,2.26,2,2.26,3.1a1.93,1.93,0,0,1-.53,1.37,1.35,1.35,0,0,1-1,.46c-.5,0-1-.44-1.37-1.33a11.59,11.59,0,0,0-4.13-5,.25.25,0,0,1-.1-.22c0-.22.1-.33.31-.33,0,0,.06,0,.07,0A15,15,0,0,1,633.59,511Zm28.29,6.73h4.28c1.2-1.45,1.93-2.17,2.19-2.17a8.27,8.27,0,0,1,2.31,1.64c.65.61,1,1,1,1.27s-.23.48-.69.48h-9.07v6.37h4.43c1.23-1.41,2-2.11,2.18-2.11a9.28,9.28,0,0,1,2.41,1.68c.59.47.89.87.89,1.23s-.24.43-.7.43h-9.21V534h5.77c1.33-1.54,2.13-2.31,2.41-2.31a9.73,9.73,0,0,1,2.54,1.83c.69.56,1,1,1,1.25s-.23.46-.67.46H652.29v1.63c0,.85-.59,1.28-1.78,1.28a1.46,1.46,0,0,1-1.06-.29,1.21,1.21,0,0,1-.26-.89l.14-12.94q0-4.44.2-10.65a33,33,0,0,1-4.91,4.52.19.19,0,0,1-.12,0c-.29,0-.43-.17-.43-.5a.13.13,0,0,1,0-.12A38.38,38.38,0,0,0,649,511a33,33,0,0,0,2.86-5.53,21.79,21.79,0,0,0,1-3.54c1.78.55,2.94.94,3.46,1.18s.8.49.8.75-.62.65-1.85.84a33.24,33.24,0,0,1-3.1,5.41l.28.19H659a39.1,39.1,0,0,0,2.26-5.65,20.39,20.39,0,0,0,.56-2.62q2.88,1,3.51,1.23c.44.22.67.45.67.69,0,.44-.61.72-1.83.85a34.33,34.33,0,0,1-4.08,5.5H667c1.29-1.47,2.06-2.21,2.3-2.21a9.41,9.41,0,0,1,2.48,1.73q1,.79,1,1.23c0,.32-.24.48-.7.48H661.88Zm-2.76,0v-6.25h-6.88v6.25Zm0,1.22h-6.88v6.37h6.88Zm0,7.6h-6.88q0,4.93,0,7.38h6.83Z"/><path id="_Compound_Path_37" data-name="&lt;Compound Path&gt;" class="cls-3" d="M705.42,508.4q-1.21,9-5.22,14.86a37.31,37.31,0,0,1-16.81,13.66h-.07c-.24,0-.36-.15-.36-.46,0-.1,0-.16.1-.19q10.29-6.18,15.17-15.32a39.07,39.07,0,0,0,4.08-13.39H687.82a23.2,23.2,0,0,0-3.82.29l-.51-1.85a25.78,25.78,0,0,0,4.33.34h14.59a91.4,91.4,0,0,0,.43-9.4,22.19,22.19,0,0,0-.28-3.15,27.82,27.82,0,0,1,4.44.79c.52.19.77.43.77.72,0,.45-.54.89-1.63,1.33,0,.92,0,2.21-.1,3.84,0,2-.18,3.91-.38,5.87h14.52c1.58-1.94,2.52-2.91,2.81-2.91s1.34.74,3,2.21c.79.72,1.18,1.22,1.18,1.49s-.23.43-.7.43H706.28a40.47,40.47,0,0,0,9.06,17.29,32.73,32.73,0,0,0,12.46,8.27.2.2,0,0,1,.17.19c0,.16-.11.27-.32.34a3.22,3.22,0,0,0-2.11,2.11c-.18.4-.41.6-.7.6a6.45,6.45,0,0,1-2-1,37.72,37.72,0,0,1-9.88-9.26Q707.65,519.2,705.42,508.4ZM701.57,525a.19.19,0,0,1-.05-.1c0-.16.1-.24.29-.24l.1,0a15.25,15.25,0,0,1,5.33,4A6.06,6.06,0,0,1,709,532.4a2.68,2.68,0,0,1-.58,1.78,1.45,1.45,0,0,1-1.15.57c-.85,0-1.4-.7-1.66-2.11A14.87,14.87,0,0,0,701.57,525Z"/></g><g id="_Group_7" data-name="&lt;Group&gt;"><rect id="_Path_2" data-name="&lt;Path&gt;" class="cls-2" x="479.49" y="513.68" width="130.82" height="3.63"/><rect id="_Path_3" data-name="&lt;Path&gt;" class="cls-2" x="746.61" y="513.68" width="139.9" height="3.63"/></g></g></g><g id="_Group_8" data-name="&lt;Group&gt;"><rect id="_Path_4" data-name="&lt;Path&gt;" class="cls-3" x="819.42" y="461.25" width="24" height="5"/></g></g></svg>